<svg xmlns="http://www.w3.org/2000/svg" viewBox="0 0 512 512" role="img" aria-labelledby="title desc">
  <title id="title">Chronica Islamica icon</title>
  <desc id="desc">A geometric astrolabe-inspired timeline mark for a secular Islamic history application.</desc>
  <defs>
    <linearGradient id="bg" x1="72" y1="60" x2="440" y2="452" gradientUnits="userSpaceOnUse">
      <stop offset="0" stop-color="#fbf4e7"/>
      <stop offset="1" stop-color="#dfd0b8"/>
    </linearGradient>
    <linearGradient id="ring" x1="98" y1="84" x2="418" y2="430" gradientUnits="userSpaceOnUse">
      <stop offset="0" stop-color="#c87d00"/>
      <stop offset=".52" stop-color="#2f7b58"/>
      <stop offset="1" stop-color="#334f63"/>
    </linearGradient>
    <filter id="shadow" x="-20%" y="-20%" width="140%" height="140%">
      <feDropShadow dx="0" dy="14" stdDeviation="18" flood-color="#2c2418" flood-opacity=".18"/>
    </filter>
  </defs>

  <rect width="512" height="512" rx="96" fill="#f5f0e8"/>
  <rect x="36" y="36" width="440" height="440" rx="84" fill="url(#bg)" filter="url(#shadow)"/>

  <circle cx="256" cy="256" r="154" fill="none" stroke="url(#ring)" stroke-width="28"/>
  <circle cx="256" cy="256" r="104" fill="none" stroke="#6b5e4a" stroke-width="7" stroke-dasharray="5 17" opacity=".58"/>
  <circle cx="256" cy="256" r="42" fill="#fffaf2" stroke="#2c2418" stroke-width="10"/>

  <path d="M256 96v72M256 344v72M96 256h72M344 256h72" stroke="#2c2418" stroke-width="16" stroke-linecap="round"/>
  <path d="M154 154l51 51M307 307l51 51M358 154l-51 51M205 307l-51 51" stroke="#8a6b2f" stroke-width="10" stroke-linecap="round" opacity=".82"/>

  <path d="M154 286c33-62 69-102 102-120 33 18 69 58 102 120" fill="none" stroke="#2f7b58" stroke-width="18" stroke-linecap="round" stroke-linejoin="round"/>
  <path d="M150 302h212" stroke="#2c2418" stroke-width="18" stroke-linecap="round"/>

  <circle cx="158" cy="302" r="15" fill="#c43a0a"/>
  <circle cx="256" cy="166" r="15" fill="#c87d00"/>
  <circle cx="354" cy="302" r="15" fill="#1068b0"/>

  <path d="M226 258h60" stroke="#2c2418" stroke-width="14" stroke-linecap="round"/>
  <path d="M256 228v60" stroke="#2c2418" stroke-width="14" stroke-linecap="round"/>
</svg>
